<svg width="24" height="24" viewBox="0 0 24 24" fill="none" xmlns="http://www.w3.org/2000/svg">
<path fill-rule="evenodd" clip-rule="evenodd" d="M9.99999 2.00001C10.0002 1.79146 9.93516 1.58807 9.81403 1.4183C9.6929 1.24853 9.52172 1.12088 9.32445 1.05322C9.12718 0.985549 8.91369 0.981251 8.71386 1.04092C8.51403 1.1006 8.33786 1.22125 8.20999 1.38601L1.20999 10.386C1.07344 10.5616 0.999298 10.7776 0.999298 11C0.999298 11.2224 1.07344 11.4385 1.20999 11.614L8.20999 20.614C8.33786 20.7788 8.51403 20.8994 8.71386 20.9591C8.91369 21.0188 9.12718 21.0145 9.32445 20.9468C9.52172 20.8791 9.6929 20.7515 9.81403 20.5817C9.93516 20.412 10.0002 20.2086 9.99999 20V16.01C15.379 16.122 17.963 17.143 19.261 18.253C20.495 19.308 20.721 20.549 20.956 21.849L21.017 22.184C21.0619 22.4237 21.1928 22.6388 21.3851 22.7887C21.5775 22.9386 21.818 23.0131 22.0614 22.9981C22.3048 22.9831 22.5343 22.8797 22.7068 22.7073C22.8793 22.5349 22.9829 22.3054 22.998 22.062C23.169 19.314 22.912 15.332 20.971 12.001C19.087 8.76801 15.694 6.28201 9.99999 6.02201V2.00001Z" fill="#457B9D"/>
</svg>
