<svg width="27" height="27" viewBox="0 0 27 27" fill="none" xmlns="http://www.w3.org/2000/svg">
<path d="M9.28125 9.28125C9.50503 9.28125 9.71964 9.37014 9.87787 9.52838C10.0361 9.68661 10.125 9.90122 10.125 10.125V20.25C10.125 20.4738 10.0361 20.6884 9.87787 20.8466C9.71964 21.0049 9.50503 21.0938 9.28125 21.0938C9.05747 21.0938 8.84286 21.0049 8.68463 20.8466C8.52639 20.6884 8.4375 20.4738 8.4375 20.25V10.125C8.4375 9.90122 8.52639 9.68661 8.68463 9.52838C8.84286 9.37014 9.05747 9.28125 9.28125 9.28125V9.28125ZM13.5 9.28125C13.7238 9.28125 13.9384 9.37014 14.0966 9.52838C14.2549 9.68661 14.3438 9.90122 14.3438 10.125V20.25C14.3438 20.4738 14.2549 20.6884 14.0966 20.8466C13.9384 21.0049 13.7238 21.0938 13.5 21.0938C13.2762 21.0938 13.0616 21.0049 12.9034 20.8466C12.7451 20.6884 12.6562 20.4738 12.6562 20.25V10.125C12.6562 9.90122 12.7451 9.68661 12.9034 9.52838C13.0616 9.37014 13.2762 9.28125 13.5 9.28125V9.28125ZM18.5625 10.125C18.5625 9.90122 18.4736 9.68661 18.3154 9.52838C18.1571 9.37014 17.9425 9.28125 17.7188 9.28125C17.495 9.28125 17.2804 9.37014 17.1221 9.52838C16.9639 9.68661 16.875 9.90122 16.875 10.125V20.25C16.875 20.4738 16.9639 20.6884 17.1221 20.8466C17.2804 21.0049 17.495 21.0938 17.7188 21.0938C17.9425 21.0938 18.1571 21.0049 18.3154 20.8466C18.4736 20.6884 18.5625 20.4738 18.5625 20.25V10.125Z" fill="#2F4B72"/>
<path fill-rule="evenodd" clip-rule="evenodd" d="M24.4688 5.0625C24.4688 5.51005 24.291 5.93928 23.9745 6.25574C23.658 6.57221 23.2288 6.75 22.7812 6.75H21.9375V21.9375C21.9375 22.8326 21.5819 23.691 20.949 24.324C20.316 24.9569 19.4576 25.3125 18.5625 25.3125H8.4375C7.54239 25.3125 6.68395 24.9569 6.05101 24.324C5.41808 23.691 5.0625 22.8326 5.0625 21.9375V6.75H4.21875C3.7712 6.75 3.34197 6.57221 3.02551 6.25574C2.70904 5.93928 2.53125 5.51005 2.53125 5.0625V3.375C2.53125 2.92745 2.70904 2.49822 3.02551 2.18176C3.34197 1.86529 3.7712 1.6875 4.21875 1.6875H10.125C10.125 1.23995 10.3028 0.810725 10.6193 0.494257C10.9357 0.17779 11.3649 0 11.8125 0L15.1875 0C15.6351 0 16.0643 0.17779 16.3807 0.494257C16.6972 0.810725 16.875 1.23995 16.875 1.6875H22.7812C23.2288 1.6875 23.658 1.86529 23.9745 2.18176C24.291 2.49822 24.4688 2.92745 24.4688 3.375V5.0625ZM6.94913 6.75L6.75 6.84956V21.9375C6.75 22.3851 6.92779 22.8143 7.24426 23.1307C7.56073 23.4472 7.98995 23.625 8.4375 23.625H18.5625C19.0101 23.625 19.4393 23.4472 19.7557 23.1307C20.0722 22.8143 20.25 22.3851 20.25 21.9375V6.84956L20.0509 6.75H6.94913ZM4.21875 5.0625V3.375H22.7812V5.0625H4.21875Z" fill="#2F4B72"/>
</svg>
